<svg class="wave-q" width="436" height="286" viewBox="0 0 436 286" fill="none" xmlns="http://www.w3.org/2000/svg">
  <path class="waveLine" d="M0.5 8.5C8.1843 8.5 7.67201 4.50001 15.5 4.50001C23.328 4.50001 22.672 8.5 30.5 8.5C38.328 8.5 37.672 4.50001 45.5 4.50001C53.328 4.50001 52.672 8.5 60.5 8.5C68.328 8.5 67.672 4.50001 75.5 4.50001C83.328 4.50001 82.672 8.5 90.5 8.5C98.328 8.5 97.672 4.50001 105.5 4.50001C113.328 4.50001 112.672 8.5 120.5 8.5C128.328 8.5 127.672 4.50001 135.5 4.50001C143.328 4.50001 142.672 8.5 150.5 8.5C158.328 8.5 157.672 4.50001 165.5 4.50001C173.328 4.50001 172.672 8.5 180.5 8.5C188.328 8.5 187.672 4.50001 195.5 4.50001C203.328 4.50001 202.672 8.5 210.5 8.5M210.5 8.5C218.328 8.5 217.672 4.50001 225.5 4.50001M210.5 8.5C218.184 8.5 217.672 4.50001 225.5 4.50001M225.5 4.50001C233.328 4.50001 232.672 8.49999 240.5 8.49999C248.328 8.49999 247.672 4.5 255.5 4.5C263.328 4.5 262.672 8.49999 270.5 8.49999C278.328 8.49999 277.672 4.5 285.5 4.5C293.328 4.5 292.672 8.49999 300.5 8.49999C308.328 8.49999 307.672 4.5 315.5 4.5C323.328 4.5 322.672 8.49999 330.5 8.49999C338.328 8.49999 337.672 4.5 345.5 4.5C353.328 4.5 352.672 8.49999 360.5 8.49999C368.328 8.49999 367.672 4.5 375.5 4.5C383.328 4.5 382.672 8.49999 390.5 8.49999C398.328 8.49999 397.672 4.5 405.5 4.5C413.328 4.5 412.672 8.49999 420.5 8.49999C428.328 8.49999 427.672 4.5 435.5 4.5" stroke="currentColor" stroke-linecap="round"/>
  <path class="waveLine" d="M0.5 15.5C8.1843 15.5 7.67201 11.5 15.5 11.5C23.328 11.5 22.672 15.5 30.5 15.5C38.328 15.5 37.672 11.5 45.5 11.5C53.328 11.5 52.672 15.5 60.5 15.5C68.328 15.5 67.672 11.5 75.5 11.5C83.328 11.5 82.672 15.5 90.5 15.5C98.328 15.5 97.672 11.5 105.5 11.5C113.328 11.5 112.672 15.5 120.5 15.5C128.328 15.5 127.672 11.5 135.5 11.5C143.328 11.5 142.672 15.5 150.5 15.5C158.328 15.5 157.672 11.5 165.5 11.5C173.328 11.5 172.672 15.5 180.5 15.5C188.328 15.5 187.672 11.5 195.5 11.5C203.328 11.5 202.672 15.5 210.5 15.5M210.5 15.5C218.328 15.5 217.672 11.5 225.5 11.5M210.5 15.5C218.184 15.5 217.672 11.5 225.5 11.5M225.5 11.5C233.328 11.5 232.672 15.5 240.5 15.5C248.328 15.5 247.672 11.5 255.5 11.5C263.328 11.5 262.672 15.5 270.5 15.5C278.328 15.5 277.672 11.5 285.5 11.5C293.328 11.5 292.672 15.5 300.5 15.5C308.328 15.5 307.672 11.5 315.5 11.5C323.328 11.5 322.672 15.5 330.5 15.5C338.328 15.5 337.672 11.5 345.5 11.5C353.328 11.5 352.672 15.5 360.5 15.5C368.328 15.5 367.672 11.5 375.5 11.5C383.328 11.5 382.672 15.5 390.5 15.5C398.328 15.5 397.672 11.5 405.5 11.5C413.328 11.5 412.672 15.5 420.5 15.5C428.328 15.5 427.672 11.5 435.5 11.5" stroke="currentColor" stroke-linecap="round"/>
  <path class="waveLine" d="M0.5 22.5C8.1843 22.5 7.67201 18.5 15.5 18.5C23.328 18.5 22.672 22.5 30.5 22.5C38.328 22.5 37.672 18.5 45.5 18.5C53.328 18.5 52.672 22.5 60.5 22.5C68.328 22.5 67.672 18.5 75.5 18.5C83.328 18.5 82.672 22.5 90.5 22.5C98.328 22.5 97.672 18.5 105.5 18.5C113.328 18.5 112.672 22.5 120.5 22.5C128.328 22.5 127.672 18.5 135.5 18.5C143.328 18.5 142.672 22.5 150.5 22.5C158.328 22.5 157.672 18.5 165.5 18.5C173.328 18.5 172.672 22.5 180.5 22.5C188.328 22.5 187.672 18.5 195.5 18.5C203.328 18.5 202.672 22.5 210.5 22.5M210.5 22.5C218.328 22.5 217.672 18.5 225.5 18.5M210.5 22.5C218.184 22.5 217.672 18.5 225.5 18.5M225.5 18.5C233.328 18.5 232.672 22.5 240.5 22.5C248.328 22.5 247.672 18.5 255.5 18.5C263.328 18.5 262.672 22.5 270.5 22.5C278.328 22.5 277.672 18.5 285.5 18.5C293.328 18.5 292.672 22.5 300.5 22.5C308.328 22.5 307.672 18.5 315.5 18.5C323.328 18.5 322.672 22.5 330.5 22.5C338.328 22.5 337.672 18.5 345.5 18.5C353.328 18.5 352.672 22.5 360.5 22.5C368.328 22.5 367.672 18.5 375.5 18.5C383.328 18.5 382.672 22.5 390.5 22.5C398.328 22.5 397.672 18.5 405.5 18.5C413.328 18.5 412.672 22.5 420.5 22.5C428.328 22.5 427.672 18.5 435.5 18.5" stroke="currentColor" stroke-linecap="round"/>
  <path class="waveLine" d="M0.5 29.5C8.1843 29.5 7.67201 25.5 15.5 25.5C23.328 25.5 22.672 29.5 30.5 29.5C38.328 29.5 37.672 25.5 45.5 25.5C53.328 25.5 52.672 29.5 60.5 29.5C68.328 29.5 67.672 25.5 75.5 25.5C83.328 25.5 82.672 29.5 90.5 29.5C98.328 29.5 97.672 25.5 105.5 25.5C113.328 25.5 112.672 29.5 120.5 29.5C128.328 29.5 127.672 25.5 135.5 25.5C143.328 25.5 142.672 29.5 150.5 29.5C158.328 29.5 157.672 25.5 165.5 25.5C173.328 25.5 172.672 29.5 180.5 29.5C188.328 29.5 187.672 25.5 195.5 25.5C203.328 25.5 202.672 29.5 210.5 29.5M210.5 29.5C218.328 29.5 217.672 25.5 225.5 25.5M210.5 29.5C218.184 29.5 217.672 25.5 225.5 25.5M225.5 25.5C233.328 25.5 232.672 29.5 240.5 29.5C248.328 29.5 247.672 25.5 255.5 25.5C263.328 25.5 262.672 29.5 270.5 29.5C278.328 29.5 277.672 25.5 285.5 25.5C293.328 25.5 292.672 29.5 300.5 29.5C308.328 29.5 307.672 25.5 315.5 25.5C323.328 25.5 322.672 29.5 330.5 29.5C338.328 29.5 337.672 25.5 345.5 25.5C353.328 25.5 352.672 29.5 360.5 29.5C368.328 29.5 367.672 25.5 375.5 25.5C383.328 25.5 382.672 29.5 390.5 29.5C398.328 29.5 397.672 25.5 405.5 25.5C413.328 25.5 412.672 29.5 420.5 29.5C428.328 29.5 427.672 25.5 435.5 25.5" stroke="currentColor" stroke-linecap="round"/>
  <path class="waveLine" d="M0.5 36.5C8.1843 36.5 7.67201 32.5 15.5 32.5C23.328 32.5 22.672 36.5 30.5 36.5C38.328 36.5 37.672 32.5 45.5 32.5C53.328 32.5 52.672 36.5 60.5 36.5C68.328 36.5 67.672 32.5 75.5 32.5C83.328 32.5 82.672 36.5 90.5 36.5C98.328 36.5 97.672 32.5 105.5 32.5C113.328 32.5 112.672 36.5 120.5 36.5C128.328 36.5 127.672 32.5 135.5 32.5C143.328 32.5 142.672 36.5 150.5 36.5C158.328 36.5 157.672 32.5 165.5 32.5C173.328 32.5 172.672 36.5 180.5 36.5C188.328 36.5 187.672 32.5 195.5 32.5C203.328 32.5 202.672 36.5 210.5 36.5M210.5 36.5C218.328 36.5 217.672 32.5 225.5 32.5M210.5 36.5C218.184 36.5 217.672 32.5 225.5 32.5M225.5 32.5C233.328 32.5 232.672 36.5 240.5 36.5C248.328 36.5 247.672 32.5 255.5 32.5C263.328 32.5 262.672 36.5 270.5 36.5C278.328 36.5 277.672 32.5 285.5 32.5C293.328 32.5 292.672 36.5 300.5 36.5C308.328 36.5 307.672 32.5 315.5 32.5C323.328 32.5 322.672 36.5 330.5 36.5C338.328 36.5 337.672 32.5 345.5 32.5C353.328 32.5 352.672 36.5 360.5 36.5C368.328 36.5 367.672 32.5 375.5 32.5C383.328 32.5 382.672 36.5 390.5 36.5C398.328 36.5 397.672 32.5 405.5 32.5C413.328 32.5 412.672 36.5 420.5 36.5C428.328 36.5 427.672 32.5 435.5 32.5" stroke="currentColor" stroke-linecap="round"/>
  <path class="waveLine" d="M0.5 43.5C8.1843 43.5 7.67201 39.5 15.5 39.5C23.328 39.5 22.672 43.5 30.5 43.5C38.328 43.5 37.672 39.5 45.5 39.5C53.328 39.5 52.672 43.5 60.5 43.5C68.328 43.5 67.672 39.5 75.5 39.5C83.328 39.5 82.672 43.5 90.5 43.5C98.328 43.5 97.672 39.5 105.5 39.5C113.328 39.5 112.672 43.5 120.5 43.5C128.328 43.5 127.672 39.5 135.5 39.5C143.328 39.5 142.672 43.5 150.5 43.5C158.328 43.5 157.672 39.5 165.5 39.5C173.328 39.5 172.672 43.5 180.5 43.5C188.328 43.5 187.672 39.5 195.5 39.5C203.328 39.5 202.672 43.5 210.5 43.5M210.5 43.5C218.328 43.5 217.672 39.5 225.5 39.5M210.5 43.5C218.184 43.5 217.672 39.5 225.5 39.5M225.5 39.5C233.328 39.5 232.672 43.5 240.5 43.5C248.328 43.5 247.672 39.5 255.5 39.5C263.328 39.5 262.672 43.5 270.5 43.5C278.328 43.5 277.672 39.5 285.5 39.5C293.328 39.5 292.672 43.5 300.5 43.5C308.328 43.5 307.672 39.5 315.5 39.5C323.328 39.5 322.672 43.5 330.5 43.5C338.328 43.5 337.672 39.5 345.5 39.5C353.328 39.5 352.672 43.5 360.5 43.5C368.328 43.5 367.672 39.5 375.5 39.5C383.328 39.5 382.672 43.5 390.5 43.5C398.328 43.5 397.672 39.5 405.5 39.5C413.328 39.5 412.672 43.5 420.5 43.5C428.328 43.5 427.672 39.5 435.5 39.5" stroke="currentColor" stroke-linecap="round"/>
  <path class="waveLine" d="M0.5 50.5C8.1843 50.5 7.67201 46.5 15.5 46.5C23.328 46.5 22.672 50.5 30.5 50.5C38.328 50.5 37.672 46.5 45.5 46.5C53.328 46.5 52.672 50.5 60.5 50.5C68.328 50.5 67.672 46.5 75.5 46.5C83.328 46.5 82.672 50.5 90.5 50.5C98.328 50.5 97.672 46.5 105.5 46.5C113.328 46.5 112.672 50.5 120.5 50.5C128.328 50.5 127.672 46.5 135.5 46.5C143.328 46.5 142.672 50.5 150.5 50.5C158.328 50.5 157.672 46.5 165.5 46.5C173.328 46.5 172.672 50.5 180.5 50.5C188.328 50.5 187.672 46.5 195.5 46.5C203.328 46.5 202.672 50.5 210.5 50.5M210.5 50.5C218.328 50.5 217.672 46.5 225.5 46.5M210.5 50.5C218.184 50.5 217.672 46.5 225.5 46.5M225.5 46.5C233.328 46.5 232.672 50.5 240.5 50.5C248.328 50.5 247.672 46.5 255.5 46.5C263.328 46.5 262.672 50.5 270.5 50.5C278.328 50.5 277.672 46.5 285.5 46.5C293.328 46.5 292.672 50.5 300.5 50.5C308.328 50.5 307.672 46.5 315.5 46.5C323.328 46.5 322.672 50.5 330.5 50.5C338.328 50.5 337.672 46.5 345.5 46.5C353.328 46.5 352.672 50.5 360.5 50.5C368.328 50.5 367.672 46.5 375.5 46.5C383.328 46.5 382.672 50.5 390.5 50.5C398.328 50.5 397.672 46.5 405.5 46.5C413.328 46.5 412.672 50.5 420.5 50.5C428.328 50.5 427.672 46.5 435.5 46.5" stroke="currentColor" stroke-linecap="round"/>
  <path class="waveLine" d="M0.5 57.5C8.1843 57.5 7.67201 53.5 15.5 53.5C23.328 53.5 22.672 57.5 30.5 57.5C38.328 57.5 37.672 53.5 45.5 53.5C53.328 53.5 52.672 57.5 60.5 57.5C68.328 57.5 67.672 53.5 75.5 53.5C83.328 53.5 82.672 57.5 90.5 57.5C98.328 57.5 97.672 53.5 105.5 53.5C113.328 53.5 112.672 57.5 120.5 57.5C128.328 57.5 127.672 53.5 135.5 53.5C143.328 53.5 142.672 57.5 150.5 57.5C158.328 57.5 157.672 53.5 165.5 53.5C173.328 53.5 172.672 57.5 180.5 57.5C188.328 57.5 187.672 53.5 195.5 53.5C203.328 53.5 202.672 57.5 210.5 57.5M210.5 57.5C218.328 57.5 217.672 53.5 225.5 53.5M210.5 57.5C218.184 57.5 217.672 53.5 225.5 53.5M225.5 53.5C233.328 53.5 232.672 57.5 240.5 57.5C248.328 57.5 247.672 53.5 255.5 53.5C263.328 53.5 262.672 57.5 270.5 57.5C278.328 57.5 277.672 53.5 285.5 53.5C293.328 53.5 292.672 57.5 300.5 57.5C308.328 57.5 307.672 53.5 315.5 53.5C323.328 53.5 322.672 57.5 330.5 57.5C338.328 57.5 337.672 53.5 345.5 53.5C353.328 53.5 352.672 57.5 360.5 57.5C368.328 57.5 367.672 53.5 375.5 53.5C383.328 53.5 382.672 57.5 390.5 57.5C398.328 57.5 397.672 53.5 405.5 53.5C413.328 53.5 412.672 57.5 420.5 57.5C428.328 57.5 427.672 53.5 435.5 53.5" stroke="currentColor" stroke-linecap="round"/>
  <path class="waveLine" d="M0.5 64.5C8.1843 64.5 7.67201 60.5 15.5 60.5C23.328 60.5 22.672 64.5 30.5 64.5C38.328 64.5 37.672 60.5 45.5 60.5C53.328 60.5 52.672 64.5 60.5 64.5C68.328 64.5 67.672 60.5 75.5 60.5C83.328 60.5 82.672 64.5 90.5 64.5C98.328 64.5 97.672 60.5 105.5 60.5C113.328 60.5 112.672 64.5 120.5 64.5C128.328 64.5 127.672 60.5 135.5 60.5C143.328 60.5 142.672 64.5 150.5 64.5C158.328 64.5 157.672 60.5 165.5 60.5C173.328 60.5 172.672 64.5 180.5 64.5C188.328 64.5 187.672 60.5 195.5 60.5C203.328 60.5 202.672 64.5 210.5 64.5M210.5 64.5C218.328 64.5 217.672 60.5 225.5 60.5M210.5 64.5C218.184 64.5 217.672 60.5 225.5 60.5M225.5 60.5C233.328 60.5 232.672 64.5 240.5 64.5C248.328 64.5 247.672 60.5 255.5 60.5C263.328 60.5 262.672 64.5 270.5 64.5C278.328 64.5 277.672 60.5 285.5 60.5C293.328 60.5 292.672 64.5 300.5 64.5C308.328 64.5 307.672 60.5 315.5 60.5C323.328 60.5 322.672 64.5 330.5 64.5C338.328 64.5 337.672 60.5 345.5 60.5C353.328 60.5 352.672 64.5 360.5 64.5C368.328 64.5 367.672 60.5 375.5 60.5C383.328 60.5 382.672 64.5 390.5 64.5C398.328 64.5 397.672 60.5 405.5 60.5C413.328 60.5 412.672 64.5 420.5 64.5C428.328 64.5 427.672 60.5 435.5 60.5" stroke="currentColor" stroke-linecap="round"/>
  <path class="waveLine" d="M0.5 71.5C8.1843 71.5 7.67201 67.5 15.5 67.5C23.328 67.5 22.672 71.5 30.5 71.5C38.328 71.5 37.672 67.5 45.5 67.5C53.328 67.5 52.672 71.5 60.5 71.5C68.328 71.5 67.672 67.5 75.5 67.5C83.328 67.5 82.672 71.5 90.5 71.5C98.328 71.5 97.672 67.5 105.5 67.5C113.328 67.5 112.672 71.5 120.5 71.5C128.328 71.5 127.672 67.5 135.5 67.5C143.328 67.5 142.672 71.5 150.5 71.5C158.328 71.5 157.672 67.5 165.5 67.5C173.328 67.5 172.672 71.5 180.5 71.5C188.328 71.5 187.672 67.5 195.5 67.5C203.328 67.5 202.672 71.5 210.5 71.5M210.5 71.5C218.328 71.5 217.672 67.5 225.5 67.5M210.5 71.5C218.184 71.5 217.672 67.5 225.5 67.5M225.5 67.5C233.328 67.5 232.672 71.5 240.5 71.5C248.328 71.5 247.672 67.5 255.5 67.5C263.328 67.5 262.672 71.5 270.5 71.5C278.328 71.5 277.672 67.5 285.5 67.5C293.328 67.5 292.672 71.5 300.5 71.5C308.328 71.5 307.672 67.5 315.5 67.5C323.328 67.5 322.672 71.5 330.5 71.5C338.328 71.5 337.672 67.5 345.5 67.5C353.328 67.5 352.672 71.5 360.5 71.5C368.328 71.5 367.672 67.5 375.5 67.5C383.328 67.5 382.672 71.5 390.5 71.5C398.328 71.5 397.672 67.5 405.5 67.5C413.328 67.5 412.672 71.5 420.5 71.5C428.328 71.5 427.672 67.5 435.5 67.5" stroke="currentColor" stroke-linecap="round"/>
  <path class="waveLine" d="M0.5 78.5C8.1843 78.5 7.67201 74.5 15.5 74.5C23.328 74.5 22.672 78.5 30.5 78.5C38.328 78.5 37.672 74.5 45.5 74.5C53.328 74.5 52.672 78.5 60.5 78.5C68.328 78.5 67.672 74.5 75.5 74.5C83.328 74.5 82.672 78.5 90.5 78.5C98.328 78.5 97.672 74.5 105.5 74.5C113.328 74.5 112.672 78.5 120.5 78.5C128.328 78.5 127.672 74.5 135.5 74.5C143.328 74.5 142.672 78.5 150.5 78.5C158.328 78.5 157.672 74.5 165.5 74.5C173.328 74.5 172.672 78.5 180.5 78.5C188.328 78.5 187.672 74.5 195.5 74.5C203.328 74.5 202.672 78.5 210.5 78.5M210.5 78.5C218.328 78.5 217.672 74.5 225.5 74.5M210.5 78.5C218.184 78.5 217.672 74.5 225.5 74.5M225.5 74.5C233.328 74.5 232.672 78.5 240.5 78.5C248.328 78.5 247.672 74.5 255.5 74.5C263.328 74.5 262.672 78.5 270.5 78.5C278.328 78.5 277.672 74.5 285.5 74.5C293.328 74.5 292.672 78.5 300.5 78.5C308.328 78.5 307.672 74.5 315.5 74.5C323.328 74.5 322.672 78.5 330.5 78.5C338.328 78.5 337.672 74.5 345.5 74.5C353.328 74.5 352.672 78.5 360.5 78.5C368.328 78.5 367.672 74.5 375.5 74.5C383.328 74.5 382.672 78.5 390.5 78.5C398.328 78.5 397.672 74.5 405.5 74.5C413.328 74.5 412.672 78.5 420.5 78.5C428.328 78.5 427.672 74.5 435.5 74.5" stroke="currentColor" stroke-linecap="round"/>
  <path class="waveLine" d="M0.5 85.5C8.1843 85.5 7.67201 81.5 15.5 81.5C23.328 81.5 22.672 85.5 30.5 85.5C38.328 85.5 37.672 81.5 45.5 81.5C53.328 81.5 52.672 85.5 60.5 85.5C68.328 85.5 67.672 81.5 75.5 81.5C83.328 81.5 82.672 85.5 90.5 85.5C98.328 85.5 97.672 81.5 105.5 81.5C113.328 81.5 112.672 85.5 120.5 85.5C128.328 85.5 127.672 81.5 135.5 81.5C143.328 81.5 142.672 85.5 150.5 85.5C158.328 85.5 157.672 81.5 165.5 81.5C173.328 81.5 172.672 85.5 180.5 85.5C188.328 85.5 187.672 81.5 195.5 81.5C203.328 81.5 202.672 85.5 210.5 85.5M210.5 85.5C218.328 85.5 217.672 81.5 225.5 81.5M210.5 85.5C218.184 85.5 217.672 81.5 225.5 81.5M225.5 81.5C233.328 81.5 232.672 85.5 240.5 85.5C248.328 85.5 247.672 81.5 255.5 81.5C263.328 81.5 262.672 85.5 270.5 85.5C278.328 85.5 277.672 81.5 285.5 81.5C293.328 81.5 292.672 85.5 300.5 85.5C308.328 85.5 307.672 81.5 315.5 81.5C323.328 81.5 322.672 85.5 330.5 85.5C338.328 85.5 337.672 81.5 345.5 81.5C353.328 81.5 352.672 85.5 360.5 85.5C368.328 85.5 367.672 81.5 375.5 81.5C383.328 81.5 382.672 85.5 390.5 85.5C398.328 85.5 397.672 81.5 405.5 81.5C413.328 81.5 412.672 85.5 420.5 85.5C428.328 85.5 427.672 81.5 435.5 81.5" stroke="currentColor" stroke-linecap="round"/>
  <path class="waveLine" d="M0.5 92.5C8.1843 92.5 7.67201 88.5 15.5 88.5C23.328 88.5 22.672 92.5 30.5 92.5C38.328 92.5 37.672 88.5 45.5 88.5C53.328 88.5 52.672 92.5 60.5 92.5C68.328 92.5 67.672 88.5 75.5 88.5C83.328 88.5 82.672 92.5 90.5 92.5C98.328 92.5 97.672 88.5 105.5 88.5C113.328 88.5 112.672 92.5 120.5 92.5C128.328 92.5 127.672 88.5 135.5 88.5C143.328 88.5 142.672 92.5 150.5 92.5C158.328 92.5 157.672 88.5 165.5 88.5C173.328 88.5 172.672 92.5 180.5 92.5C188.328 92.5 187.672 88.5 195.5 88.5C203.328 88.5 202.672 92.5 210.5 92.5M210.5 92.5C218.328 92.5 217.672 88.5 225.5 88.5M210.5 92.5C218.184 92.5 217.672 88.5 225.5 88.5M225.5 88.5C233.328 88.5 232.672 92.5 240.5 92.5C248.328 92.5 247.672 88.5 255.5 88.5C263.328 88.5 262.672 92.5 270.5 92.5C278.328 92.5 277.672 88.5 285.5 88.5C293.328 88.5 292.672 92.5 300.5 92.5C308.328 92.5 307.672 88.5 315.5 88.5C323.328 88.5 322.672 92.5 330.5 92.5C338.328 92.5 337.672 88.5 345.5 88.5C353.328 88.5 352.672 92.5 360.5 92.5C368.328 92.5 367.672 88.5 375.5 88.5C383.328 88.5 382.672 92.5 390.5 92.5C398.328 92.5 397.672 88.5 405.5 88.5C413.328 88.5 412.672 92.5 420.5 92.5C428.328 92.5 427.672 88.5 435.5 88.5" stroke="currentColor" stroke-linecap="round"/>
  <path class="waveLine" d="M0.5 99.5C8.1843 99.5 7.67201 95.5 15.5 95.5C23.328 95.5 22.672 99.5 30.5 99.5C38.328 99.5 37.672 95.5 45.5 95.5C53.328 95.5 52.672 99.5 60.5 99.5C68.328 99.5 67.672 95.5 75.5 95.5C83.328 95.5 82.672 99.5 90.5 99.5C98.328 99.5 97.672 95.5 105.5 95.5C113.328 95.5 112.672 99.5 120.5 99.5C128.328 99.5 127.672 95.5 135.5 95.5C143.328 95.5 142.672 99.5 150.5 99.5C158.328 99.5 157.672 95.5 165.5 95.5C173.328 95.5 172.672 99.5 180.5 99.5C188.328 99.5 187.672 95.5 195.5 95.5C203.328 95.5 202.672 99.5 210.5 99.5M210.5 99.5C218.328 99.5 217.672 95.5 225.5 95.5M210.5 99.5C218.184 99.5 217.672 95.5 225.5 95.5M225.5 95.5C233.328 95.5 232.672 99.5 240.5 99.5C248.328 99.5 247.672 95.5 255.5 95.5C263.328 95.5 262.672 99.5 270.5 99.5C278.328 99.5 277.672 95.5 285.5 95.5C293.328 95.5 292.672 99.5 300.5 99.5C308.328 99.5 307.672 95.5 315.5 95.5C323.328 95.5 322.672 99.5 330.5 99.5C338.328 99.5 337.672 95.5 345.5 95.5C353.328 95.5 352.672 99.5 360.5 99.5C368.328 99.5 367.672 95.5 375.5 95.5C383.328 95.5 382.672 99.5 390.5 99.5C398.328 99.5 397.672 95.5 405.5 95.5C413.328 95.5 412.672 99.5 420.5 99.5C428.328 99.5 427.672 95.5 435.5 95.5" stroke="currentColor" stroke-linecap="round"/>
  <path class="waveLine" d="M0.5 106.5C8.1843 106.5 7.67201 102.5 15.5 102.5C23.328 102.5 22.672 106.5 30.5 106.5C38.328 106.5 37.672 102.5 45.5 102.5C53.328 102.5 52.672 106.5 60.5 106.5C68.328 106.5 67.672 102.5 75.5 102.5C83.328 102.5 82.672 106.5 90.5 106.5C98.328 106.5 97.672 102.5 105.5 102.5C113.328 102.5 112.672 106.5 120.5 106.5C128.328 106.5 127.672 102.5 135.5 102.5C143.328 102.5 142.672 106.5 150.5 106.5C158.328 106.5 157.672 102.5 165.5 102.5C173.328 102.5 172.672 106.5 180.5 106.5C188.328 106.5 187.672 102.5 195.5 102.5C203.328 102.5 202.672 106.5 210.5 106.5M210.5 106.5C218.328 106.5 217.672 102.5 225.5 102.5M210.5 106.5C218.184 106.5 217.672 102.5 225.5 102.5M225.5 102.5C233.328 102.5 232.672 106.5 240.5 106.5C248.328 106.5 247.672 102.5 255.5 102.5C263.328 102.5 262.672 106.5 270.5 106.5C278.328 106.5 277.672 102.5 285.5 102.5C293.328 102.5 292.672 106.5 300.5 106.5C308.328 106.5 307.672 102.5 315.5 102.5C323.328 102.5 322.672 106.5 330.5 106.5C338.328 106.5 337.672 102.5 345.5 102.5C353.328 102.5 352.672 106.5 360.5 106.5C368.328 106.5 367.672 102.5 375.5 102.5C383.328 102.5 382.672 106.5 390.5 106.5C398.328 106.5 397.672 102.5 405.5 102.5C413.328 102.5 412.672 106.5 420.5 106.5C428.328 106.5 427.672 102.5 435.5 102.5" stroke="currentColor" stroke-linecap="round"/>
  <path class="waveLine" d="M0.5 113.5C8.1843 113.5 7.67201 109.5 15.5 109.5C23.328 109.5 22.672 113.5 30.5 113.5C38.328 113.5 37.672 109.5 45.5 109.5C53.328 109.5 52.672 113.5 60.5 113.5C68.328 113.5 67.672 109.5 75.5 109.5C83.328 109.5 82.672 113.5 90.5 113.5C98.328 113.5 97.672 109.5 105.5 109.5C113.328 109.5 112.672 113.5 120.5 113.5C128.328 113.5 127.672 109.5 135.5 109.5C143.328 109.5 142.672 113.5 150.5 113.5C158.328 113.5 157.672 109.5 165.5 109.5C173.328 109.5 172.672 113.5 180.5 113.5C188.328 113.5 187.672 109.5 195.5 109.5C203.328 109.5 202.672 113.5 210.5 113.5M210.5 113.5C218.328 113.5 217.672 109.5 225.5 109.5M210.5 113.5C218.184 113.5 217.672 109.5 225.5 109.5M225.5 109.5C233.328 109.5 232.672 113.5 240.5 113.5C248.328 113.5 247.672 109.5 255.5 109.5C263.328 109.5 262.672 113.5 270.5 113.5C278.328 113.5 277.672 109.5 285.5 109.5C293.328 109.5 292.672 113.5 300.5 113.5C308.328 113.5 307.672 109.5 315.5 109.5C323.328 109.5 322.672 113.5 330.5 113.5C338.328 113.5 337.672 109.5 345.5 109.5C353.328 109.5 352.672 113.5 360.5 113.5C368.328 113.5 367.672 109.5 375.5 109.5C383.328 109.5 382.672 113.5 390.5 113.5C398.328 113.5 397.672 109.5 405.5 109.5C413.328 109.5 412.672 113.5 420.5 113.5C428.328 113.5 427.672 109.5 435.5 109.5" stroke="currentColor" stroke-linecap="round"/>
  <path class="waveLine" d="M0.5 120.5C8.1843 120.5 7.67201 116.5 15.5 116.5C23.328 116.5 22.672 120.5 30.5 120.5C38.328 120.5 37.672 116.5 45.5 116.5C53.328 116.5 52.672 120.5 60.5 120.5C68.328 120.5 67.672 116.5 75.5 116.5C83.328 116.5 82.672 120.5 90.5 120.5C98.328 120.5 97.672 116.5 105.5 116.5C113.328 116.5 112.672 120.5 120.5 120.5C128.328 120.5 127.672 116.5 135.5 116.5C143.328 116.5 142.672 120.5 150.5 120.5C158.328 120.5 157.672 116.5 165.5 116.5C173.328 116.5 172.672 120.5 180.5 120.5C188.328 120.5 187.672 116.5 195.5 116.5C203.328 116.5 202.672 120.5 210.5 120.5M210.5 120.5C218.328 120.5 217.672 116.5 225.5 116.5M210.5 120.5C218.184 120.5 217.672 116.5 225.5 116.5M225.5 116.5C233.328 116.5 232.672 120.5 240.5 120.5C248.328 120.5 247.672 116.5 255.5 116.5C263.328 116.5 262.672 120.5 270.5 120.5C278.328 120.5 277.672 116.5 285.5 116.5C293.328 116.5 292.672 120.5 300.5 120.5C308.328 120.5 307.672 116.5 315.5 116.5C323.328 116.5 322.672 120.5 330.5 120.5C338.328 120.5 337.672 116.5 345.5 116.5C353.328 116.5 352.672 120.5 360.5 120.5C368.328 120.5 367.672 116.5 375.5 116.5C383.328 116.5 382.672 120.5 390.5 120.5C398.328 120.5 397.672 116.5 405.5 116.5C413.328 116.5 412.672 120.5 420.5 120.5C428.328 120.5 427.672 116.5 435.5 116.5" stroke="currentColor" stroke-linecap="round"/>
  <path class="waveLine" d="M0.5 127.5C8.1843 127.5 7.67201 123.5 15.5 123.5C23.328 123.5 22.672 127.5 30.5 127.5C38.328 127.5 37.672 123.5 45.5 123.5C53.328 123.5 52.672 127.5 60.5 127.5C68.328 127.5 67.672 123.5 75.5 123.5C83.328 123.5 82.672 127.5 90.5 127.5C98.328 127.5 97.672 123.5 105.5 123.5C113.328 123.5 112.672 127.5 120.5 127.5C128.328 127.5 127.672 123.5 135.5 123.5C143.328 123.5 142.672 127.5 150.5 127.5C158.328 127.5 157.672 123.5 165.5 123.5C173.328 123.5 172.672 127.5 180.5 127.5C188.328 127.5 187.672 123.5 195.5 123.5C203.328 123.5 202.672 127.5 210.5 127.5M210.5 127.5C218.328 127.5 217.672 123.5 225.5 123.5M210.5 127.5C218.184 127.5 217.672 123.5 225.5 123.5M225.5 123.5C233.328 123.5 232.672 127.5 240.5 127.5C248.328 127.5 247.672 123.5 255.5 123.5C263.328 123.5 262.672 127.5 270.5 127.5C278.328 127.5 277.672 123.5 285.5 123.5C293.328 123.5 292.672 127.5 300.5 127.5C308.328 127.5 307.672 123.5 315.5 123.5C323.328 123.5 322.672 127.5 330.5 127.5C338.328 127.5 337.672 123.5 345.5 123.5C353.328 123.5 352.672 127.5 360.5 127.5C368.328 127.5 367.672 123.5 375.5 123.5C383.328 123.5 382.672 127.5 390.5 127.5C398.328 127.5 397.672 123.5 405.5 123.5C413.328 123.5 412.672 127.5 420.5 127.5C428.328 127.5 427.672 123.5 435.5 123.5" stroke="currentColor" stroke-linecap="round"/>
  <path class="waveLine" d="M0.5 134.5C8.1843 134.5 7.67201 130.5 15.5 130.5C23.328 130.5 22.672 134.5 30.5 134.5C38.328 134.5 37.672 130.5 45.5 130.5C53.328 130.5 52.672 134.5 60.5 134.5C68.328 134.5 67.672 130.5 75.5 130.5C83.328 130.5 82.672 134.5 90.5 134.5C98.328 134.5 97.672 130.5 105.5 130.5C113.328 130.5 112.672 134.5 120.5 134.5C128.328 134.5 127.672 130.5 135.5 130.5C143.328 130.5 142.672 134.5 150.5 134.5C158.328 134.5 157.672 130.5 165.5 130.5C173.328 130.5 172.672 134.5 180.5 134.5C188.328 134.5 187.672 130.5 195.5 130.5C203.328 130.5 202.672 134.5 210.5 134.5M210.5 134.5C218.328 134.5 217.672 130.5 225.5 130.5M210.5 134.5C218.184 134.5 217.672 130.5 225.5 130.5M225.5 130.5C233.328 130.5 232.672 134.5 240.5 134.5C248.328 134.5 247.672 130.5 255.5 130.5C263.328 130.5 262.672 134.5 270.5 134.5C278.328 134.5 277.672 130.5 285.5 130.5C293.328 130.5 292.672 134.5 300.5 134.5C308.328 134.5 307.672 130.5 315.5 130.5C323.328 130.5 322.672 134.5 330.5 134.5C338.328 134.5 337.672 130.5 345.5 130.5C353.328 130.5 352.672 134.5 360.5 134.5C368.328 134.5 367.672 130.5 375.5 130.5C383.328 130.5 382.672 134.5 390.5 134.5C398.328 134.5 397.672 130.5 405.5 130.5C413.328 130.5 412.672 134.5 420.5 134.5C428.328 134.5 427.672 130.5 435.5 130.5" stroke="currentColor" stroke-linecap="round"/>
  <path class="waveLine" d="M0.5 141.5C8.1843 141.5 7.67201 137.5 15.5 137.5C23.328 137.5 22.672 141.5 30.5 141.5C38.328 141.5 37.672 137.5 45.5 137.5C53.328 137.5 52.672 141.5 60.5 141.5C68.328 141.5 67.672 137.5 75.5 137.5C83.328 137.5 82.672 141.5 90.5 141.5C98.328 141.5 97.672 137.5 105.5 137.5C113.328 137.5 112.672 141.5 120.5 141.5C128.328 141.5 127.672 137.5 135.5 137.5C143.328 137.5 142.672 141.5 150.5 141.5C158.328 141.5 157.672 137.5 165.5 137.5C173.328 137.5 172.672 141.5 180.5 141.5C188.328 141.5 187.672 137.5 195.5 137.5C203.328 137.5 202.672 141.5 210.5 141.5M210.5 141.5C218.328 141.5 217.672 137.5 225.5 137.5M210.5 141.5C218.184 141.5 217.672 137.5 225.5 137.5M225.5 137.5C233.328 137.5 232.672 141.5 240.5 141.5C248.328 141.5 247.672 137.5 255.5 137.5C263.328 137.5 262.672 141.5 270.5 141.5C278.328 141.5 277.672 137.5 285.5 137.5C293.328 137.5 292.672 141.5 300.5 141.5C308.328 141.5 307.672 137.5 315.5 137.5C323.328 137.5 322.672 141.5 330.5 141.5C338.328 141.5 337.672 137.5 345.5 137.5C353.328 137.5 352.672 141.5 360.5 141.5C368.328 141.5 367.672 137.5 375.5 137.5C383.328 137.5 382.672 141.5 390.5 141.5C398.328 141.5 397.672 137.5 405.5 137.5C413.328 137.5 412.672 141.5 420.5 141.5C428.328 141.5 427.672 137.5 435.5 137.5" stroke="currentColor" stroke-linecap="round"/>
  <path class="waveLine" d="M0.5 148.5C8.1843 148.5 7.67201 144.5 15.5 144.5C23.328 144.5 22.672 148.5 30.5 148.5C38.328 148.5 37.672 144.5 45.5 144.5C53.328 144.5 52.672 148.5 60.5 148.5C68.328 148.5 67.672 144.5 75.5 144.5C83.328 144.5 82.672 148.5 90.5 148.5C98.328 148.5 97.672 144.5 105.5 144.5C113.328 144.5 112.672 148.5 120.5 148.5C128.328 148.5 127.672 144.5 135.5 144.5C143.328 144.5 142.672 148.5 150.5 148.5C158.328 148.5 157.672 144.5 165.5 144.5C173.328 144.5 172.672 148.5 180.5 148.5C188.328 148.5 187.672 144.5 195.5 144.5C203.328 144.5 202.672 148.5 210.5 148.5M210.5 148.5C218.328 148.5 217.672 144.5 225.5 144.5M210.5 148.5C218.184 148.5 217.672 144.5 225.5 144.5M225.5 144.5C233.328 144.5 232.672 148.5 240.5 148.5C248.328 148.5 247.672 144.5 255.5 144.5C263.328 144.5 262.672 148.5 270.5 148.5C278.328 148.5 277.672 144.5 285.5 144.5C293.328 144.5 292.672 148.5 300.5 148.5C308.328 148.5 307.672 144.5 315.5 144.5C323.328 144.5 322.672 148.5 330.5 148.5C338.328 148.5 337.672 144.5 345.5 144.5C353.328 144.5 352.672 148.5 360.5 148.5C368.328 148.5 367.672 144.5 375.5 144.5C383.328 144.5 382.672 148.5 390.5 148.5C398.328 148.5 397.672 144.5 405.5 144.5C413.328 144.5 412.672 148.5 420.5 148.5C428.328 148.5 427.672 144.5 435.5 144.5" stroke="currentColor" stroke-linecap="round"/>
  <path class="waveLine" d="M0.5 155.5C8.1843 155.5 7.67201 151.5 15.5 151.5C23.328 151.5 22.672 155.5 30.5 155.5C38.328 155.5 37.672 151.5 45.5 151.5C53.328 151.5 52.672 155.5 60.5 155.5C68.328 155.5 67.672 151.5 75.5 151.5C83.328 151.5 82.672 155.5 90.5 155.5C98.328 155.5 97.672 151.5 105.5 151.5C113.328 151.5 112.672 155.5 120.5 155.5C128.328 155.5 127.672 151.5 135.5 151.5C143.328 151.5 142.672 155.5 150.5 155.5C158.328 155.5 157.672 151.5 165.5 151.5C173.328 151.5 172.672 155.5 180.5 155.5C188.328 155.5 187.672 151.5 195.5 151.5C203.328 151.5 202.672 155.5 210.5 155.5M210.5 155.5C218.328 155.5 217.672 151.5 225.5 151.5M210.5 155.5C218.184 155.5 217.672 151.5 225.5 151.5M225.5 151.5C233.328 151.5 232.672 155.5 240.5 155.5C248.328 155.5 247.672 151.5 255.5 151.5C263.328 151.5 262.672 155.5 270.5 155.5C278.328 155.5 277.672 151.5 285.5 151.5C293.328 151.5 292.672 155.5 300.5 155.5C308.328 155.5 307.672 151.5 315.5 151.5C323.328 151.5 322.672 155.5 330.5 155.5C338.328 155.5 337.672 151.5 345.5 151.5C353.328 151.5 352.672 155.5 360.5 155.5C368.328 155.5 367.672 151.5 375.5 151.5C383.328 151.5 382.672 155.5 390.5 155.5C398.328 155.5 397.672 151.5 405.5 151.5C413.328 151.5 412.672 155.5 420.5 155.5C428.328 155.5 427.672 151.5 435.5 151.5" stroke="currentColor" stroke-linecap="round"/>
  <path class="waveLine" d="M0.5 162.5C8.1843 162.5 7.67201 158.5 15.5 158.5C23.328 158.5 22.672 162.5 30.5 162.5C38.328 162.5 37.672 158.5 45.5 158.5C53.328 158.5 52.672 162.5 60.5 162.5C68.328 162.5 67.672 158.5 75.5 158.5C83.328 158.5 82.672 162.5 90.5 162.5C98.328 162.5 97.672 158.5 105.5 158.5C113.328 158.5 112.672 162.5 120.5 162.5C128.328 162.5 127.672 158.5 135.5 158.5C143.328 158.5 142.672 162.5 150.5 162.5C158.328 162.5 157.672 158.5 165.5 158.5C173.328 158.5 172.672 162.5 180.5 162.5C188.328 162.5 187.672 158.5 195.5 158.5C203.328 158.5 202.672 162.5 210.5 162.5M210.5 162.5C218.328 162.5 217.672 158.5 225.5 158.5M210.5 162.5C218.184 162.5 217.672 158.5 225.5 158.5M225.5 158.5C233.328 158.5 232.672 162.5 240.5 162.5C248.328 162.5 247.672 158.5 255.5 158.5C263.328 158.5 262.672 162.5 270.5 162.5C278.328 162.5 277.672 158.5 285.5 158.5C293.328 158.5 292.672 162.5 300.5 162.5C308.328 162.5 307.672 158.5 315.5 158.5C323.328 158.5 322.672 162.5 330.5 162.5C338.328 162.5 337.672 158.5 345.5 158.5C353.328 158.5 352.672 162.5 360.5 162.5C368.328 162.5 367.672 158.5 375.5 158.5C383.328 158.5 382.672 162.5 390.5 162.5C398.328 162.5 397.672 158.5 405.5 158.5C413.328 158.5 412.672 162.5 420.5 162.5C428.328 162.5 427.672 158.5 435.5 158.5" stroke="currentColor" stroke-linecap="round"/>
  <path class="waveLine" d="M0.5 169.5C8.1843 169.5 7.67201 165.5 15.5 165.5C23.328 165.5 22.672 169.5 30.5 169.5C38.328 169.5 37.672 165.5 45.5 165.5C53.328 165.5 52.672 169.5 60.5 169.5C68.328 169.5 67.672 165.5 75.5 165.5C83.328 165.5 82.672 169.5 90.5 169.5C98.328 169.5 97.672 165.5 105.5 165.5C113.328 165.5 112.672 169.5 120.5 169.5C128.328 169.5 127.672 165.5 135.5 165.5C143.328 165.5 142.672 169.5 150.5 169.5C158.328 169.5 157.672 165.5 165.5 165.5C173.328 165.5 172.672 169.5 180.5 169.5C188.328 169.5 187.672 165.5 195.5 165.5C203.328 165.5 202.672 169.5 210.5 169.5M210.5 169.5C218.328 169.5 217.672 165.5 225.5 165.5M210.5 169.5C218.184 169.5 217.672 165.5 225.5 165.5M225.5 165.5C233.328 165.5 232.672 169.5 240.5 169.5C248.328 169.5 247.672 165.5 255.5 165.5C263.328 165.5 262.672 169.5 270.5 169.5C278.328 169.5 277.672 165.5 285.5 165.5C293.328 165.5 292.672 169.5 300.5 169.5C308.328 169.5 307.672 165.5 315.5 165.5C323.328 165.5 322.672 169.5 330.5 169.5C338.328 169.5 337.672 165.5 345.5 165.5C353.328 165.5 352.672 169.5 360.5 169.5C368.328 169.5 367.672 165.5 375.5 165.5C383.328 165.5 382.672 169.5 390.5 169.5C398.328 169.5 397.672 165.5 405.5 165.5C413.328 165.5 412.672 169.5 420.5 169.5C428.328 169.5 427.672 165.5 435.5 165.5" stroke="currentColor" stroke-linecap="round"/>
  <path class="waveLine" d="M0.5 176.5C8.1843 176.5 7.67201 172.5 15.5 172.5C23.328 172.5 22.672 176.5 30.5 176.5C38.328 176.5 37.672 172.5 45.5 172.5C53.328 172.5 52.672 176.5 60.5 176.5C68.328 176.5 67.672 172.5 75.5 172.5C83.328 172.5 82.672 176.5 90.5 176.5C98.328 176.5 97.672 172.5 105.5 172.5C113.328 172.5 112.672 176.5 120.5 176.5C128.328 176.5 127.672 172.5 135.5 172.5C143.328 172.5 142.672 176.5 150.5 176.5C158.328 176.5 157.672 172.5 165.5 172.5C173.328 172.5 172.672 176.5 180.5 176.5C188.328 176.5 187.672 172.5 195.5 172.5C203.328 172.5 202.672 176.5 210.5 176.5M210.5 176.5C218.328 176.5 217.672 172.5 225.5 172.5M210.5 176.5C218.184 176.5 217.672 172.5 225.5 172.5M225.5 172.5C233.328 172.5 232.672 176.5 240.5 176.5C248.328 176.5 247.672 172.5 255.5 172.5C263.328 172.5 262.672 176.5 270.5 176.5C278.328 176.5 277.672 172.5 285.5 172.5C293.328 172.5 292.672 176.5 300.5 176.5C308.328 176.5 307.672 172.5 315.5 172.5C323.328 172.5 322.672 176.5 330.5 176.5C338.328 176.5 337.672 172.5 345.5 172.5C353.328 172.5 352.672 176.5 360.5 176.5C368.328 176.5 367.672 172.5 375.5 172.5C383.328 172.5 382.672 176.5 390.5 176.5C398.328 176.5 397.672 172.5 405.5 172.5C413.328 172.5 412.672 176.5 420.5 176.5C428.328 176.5 427.672 172.5 435.5 172.5" stroke="currentColor" stroke-linecap="round"/>
  <path class="waveLine" d="M0.5 183.5C8.1843 183.5 7.67201 179.5 15.5 179.5C23.328 179.5 22.672 183.5 30.5 183.5C38.328 183.5 37.672 179.5 45.5 179.5C53.328 179.5 52.672 183.5 60.5 183.5C68.328 183.5 67.672 179.5 75.5 179.5C83.328 179.5 82.672 183.5 90.5 183.5C98.328 183.5 97.672 179.5 105.5 179.5C113.328 179.5 112.672 183.5 120.5 183.5C128.328 183.5 127.672 179.5 135.5 179.5C143.328 179.5 142.672 183.5 150.5 183.5C158.328 183.5 157.672 179.5 165.5 179.5C173.328 179.5 172.672 183.5 180.5 183.5C188.328 183.5 187.672 179.5 195.5 179.5C203.328 179.5 202.672 183.5 210.5 183.5M210.5 183.5C218.328 183.5 217.672 179.5 225.5 179.5M210.5 183.5C218.184 183.5 217.672 179.5 225.5 179.5M225.5 179.5C233.328 179.5 232.672 183.5 240.5 183.5C248.328 183.5 247.672 179.5 255.5 179.5C263.328 179.5 262.672 183.5 270.5 183.5C278.328 183.5 277.672 179.5 285.5 179.5C293.328 179.5 292.672 183.5 300.5 183.5C308.328 183.5 307.672 179.5 315.5 179.5C323.328 179.5 322.672 183.5 330.5 183.5C338.328 183.5 337.672 179.5 345.5 179.5C353.328 179.5 352.672 183.5 360.5 183.5C368.328 183.5 367.672 179.5 375.5 179.5C383.328 179.5 382.672 183.5 390.5 183.5C398.328 183.5 397.672 179.5 405.5 179.5C413.328 179.5 412.672 183.5 420.5 183.5C428.328 183.5 427.672 179.5 435.5 179.5" stroke="currentColor" stroke-linecap="round"/>
  <path class="waveLine" d="M0.5 190.5C8.1843 190.5 7.67201 186.5 15.5 186.5C23.328 186.5 22.672 190.5 30.5 190.5C38.328 190.5 37.672 186.5 45.5 186.5C53.328 186.5 52.672 190.5 60.5 190.5C68.328 190.5 67.672 186.5 75.5 186.5C83.328 186.5 82.672 190.5 90.5 190.5C98.328 190.5 97.672 186.5 105.5 186.5C113.328 186.5 112.672 190.5 120.5 190.5C128.328 190.5 127.672 186.5 135.5 186.5C143.328 186.5 142.672 190.5 150.5 190.5C158.328 190.5 157.672 186.5 165.5 186.5C173.328 186.5 172.672 190.5 180.5 190.5C188.328 190.5 187.672 186.5 195.5 186.5C203.328 186.5 202.672 190.5 210.5 190.5M210.5 190.5C218.328 190.5 217.672 186.5 225.5 186.5M210.5 190.5C218.184 190.5 217.672 186.5 225.5 186.5M225.5 186.5C233.328 186.5 232.672 190.5 240.5 190.5C248.328 190.5 247.672 186.5 255.5 186.5C263.328 186.5 262.672 190.5 270.5 190.5C278.328 190.5 277.672 186.5 285.5 186.5C293.328 186.5 292.672 190.5 300.5 190.5C308.328 190.5 307.672 186.5 315.5 186.5C323.328 186.5 322.672 190.5 330.5 190.5C338.328 190.5 337.672 186.5 345.5 186.5C353.328 186.5 352.672 190.5 360.5 190.5C368.328 190.5 367.672 186.5 375.5 186.5C383.328 186.5 382.672 190.5 390.5 190.5C398.328 190.5 397.672 186.5 405.5 186.5C413.328 186.5 412.672 190.5 420.5 190.5C428.328 190.5 427.672 186.5 435.5 186.5" stroke="currentColor" stroke-linecap="round"/>
  <path class="waveLine" d="M0.5 197.5C8.1843 197.5 7.67201 193.5 15.5 193.5C23.328 193.5 22.672 197.5 30.5 197.5C38.328 197.5 37.672 193.5 45.5 193.5C53.328 193.5 52.672 197.5 60.5 197.5C68.328 197.5 67.672 193.5 75.5 193.5C83.328 193.5 82.672 197.5 90.5 197.5C98.328 197.5 97.672 193.5 105.5 193.5C113.328 193.5 112.672 197.5 120.5 197.5C128.328 197.5 127.672 193.5 135.5 193.5C143.328 193.5 142.672 197.5 150.5 197.5C158.328 197.5 157.672 193.5 165.5 193.5C173.328 193.5 172.672 197.5 180.5 197.5C188.328 197.5 187.672 193.5 195.5 193.5C203.328 193.5 202.672 197.5 210.5 197.5M210.5 197.5C218.328 197.5 217.672 193.5 225.5 193.5M210.5 197.5C218.184 197.5 217.672 193.5 225.5 193.5M225.5 193.5C233.328 193.5 232.672 197.5 240.5 197.5C248.328 197.5 247.672 193.5 255.5 193.5C263.328 193.5 262.672 197.5 270.5 197.5C278.328 197.5 277.672 193.5 285.5 193.5C293.328 193.5 292.672 197.5 300.5 197.5C308.328 197.5 307.672 193.5 315.5 193.5C323.328 193.5 322.672 197.5 330.5 197.5C338.328 197.5 337.672 193.5 345.5 193.5C353.328 193.5 352.672 197.5 360.5 197.5C368.328 197.5 367.672 193.5 375.5 193.5C383.328 193.5 382.672 197.5 390.5 197.5C398.328 197.5 397.672 193.5 405.5 193.5C413.328 193.5 412.672 197.5 420.5 197.5C428.328 197.5 427.672 193.5 435.5 193.5" stroke="currentColor" stroke-linecap="round"/>
  <path class="waveLine" d="M0.5 204.5C8.1843 204.5 7.67201 200.5 15.5 200.5C23.328 200.5 22.672 204.5 30.5 204.5C38.328 204.5 37.672 200.5 45.5 200.5C53.328 200.5 52.672 204.5 60.5 204.5C68.328 204.5 67.672 200.5 75.5 200.5C83.328 200.5 82.672 204.5 90.5 204.5C98.328 204.5 97.672 200.5 105.5 200.5C113.328 200.5 112.672 204.5 120.5 204.5C128.328 204.5 127.672 200.5 135.5 200.5C143.328 200.5 142.672 204.5 150.5 204.5C158.328 204.5 157.672 200.5 165.5 200.5C173.328 200.5 172.672 204.5 180.5 204.5C188.328 204.5 187.672 200.5 195.5 200.5C203.328 200.5 202.672 204.5 210.5 204.5M210.5 204.5C218.328 204.5 217.672 200.5 225.5 200.5M210.5 204.5C218.184 204.5 217.672 200.5 225.5 200.5M225.5 200.5C233.328 200.5 232.672 204.5 240.5 204.5C248.328 204.5 247.672 200.5 255.5 200.5C263.328 200.5 262.672 204.5 270.5 204.5C278.328 204.5 277.672 200.5 285.5 200.5C293.328 200.5 292.672 204.5 300.5 204.5C308.328 204.5 307.672 200.5 315.5 200.5C323.328 200.5 322.672 204.5 330.5 204.5C338.328 204.5 337.672 200.5 345.5 200.5C353.328 200.5 352.672 204.5 360.5 204.5C368.328 204.5 367.672 200.5 375.5 200.5C383.328 200.5 382.672 204.5 390.5 204.5C398.328 204.5 397.672 200.5 405.5 200.5C413.328 200.5 412.672 204.5 420.5 204.5C428.328 204.5 427.672 200.5 435.5 200.5" stroke="currentColor" stroke-linecap="round"/>
  <path class="waveLine" d="M0.5 211.5C8.1843 211.5 7.67201 207.5 15.5 207.5C23.328 207.5 22.672 211.5 30.5 211.5C38.328 211.5 37.672 207.5 45.5 207.5C53.328 207.5 52.672 211.5 60.5 211.5C68.328 211.5 67.672 207.5 75.5 207.5C83.328 207.5 82.672 211.5 90.5 211.5C98.328 211.5 97.672 207.5 105.5 207.5C113.328 207.5 112.672 211.5 120.5 211.5C128.328 211.5 127.672 207.5 135.5 207.5C143.328 207.5 142.672 211.5 150.5 211.5C158.328 211.5 157.672 207.5 165.5 207.5C173.328 207.5 172.672 211.5 180.5 211.5C188.328 211.5 187.672 207.5 195.5 207.5C203.328 207.5 202.672 211.5 210.5 211.5M210.5 211.5C218.328 211.5 217.672 207.5 225.5 207.5M210.5 211.5C218.184 211.5 217.672 207.5 225.5 207.5M225.5 207.5C233.328 207.5 232.672 211.5 240.5 211.5C248.328 211.5 247.672 207.5 255.5 207.5C263.328 207.5 262.672 211.5 270.5 211.5C278.328 211.5 277.672 207.5 285.5 207.5C293.328 207.5 292.672 211.5 300.5 211.5C308.328 211.5 307.672 207.5 315.5 207.5C323.328 207.5 322.672 211.5 330.5 211.5C338.328 211.5 337.672 207.5 345.5 207.5C353.328 207.5 352.672 211.5 360.5 211.5C368.328 211.5 367.672 207.5 375.5 207.5C383.328 207.5 382.672 211.5 390.5 211.5C398.328 211.5 397.672 207.5 405.5 207.5C413.328 207.5 412.672 211.5 420.5 211.5C428.328 211.5 427.672 207.5 435.5 207.5" stroke="currentColor" stroke-linecap="round"/>
  <path class="waveLine" d="M0.5 218.5C8.1843 218.5 7.67201 214.5 15.5 214.5C23.328 214.5 22.672 218.5 30.5 218.5C38.328 218.5 37.672 214.5 45.5 214.5C53.328 214.5 52.672 218.5 60.5 218.5C68.328 218.5 67.672 214.5 75.5 214.5C83.328 214.5 82.672 218.5 90.5 218.5C98.328 218.5 97.672 214.5 105.5 214.5C113.328 214.5 112.672 218.5 120.5 218.5C128.328 218.5 127.672 214.5 135.5 214.5C143.328 214.5 142.672 218.5 150.5 218.5C158.328 218.5 157.672 214.5 165.5 214.5C173.328 214.5 172.672 218.5 180.5 218.5C188.328 218.5 187.672 214.5 195.5 214.5C203.328 214.5 202.672 218.5 210.5 218.5M210.5 218.5C218.328 218.5 217.672 214.5 225.5 214.5M210.5 218.5C218.184 218.5 217.672 214.5 225.5 214.5M225.5 214.5C233.328 214.5 232.672 218.5 240.5 218.5C248.328 218.5 247.672 214.5 255.5 214.5C263.328 214.5 262.672 218.5 270.5 218.5C278.328 218.5 277.672 214.5 285.5 214.5C293.328 214.5 292.672 218.5 300.5 218.5C308.328 218.5 307.672 214.5 315.5 214.5C323.328 214.5 322.672 218.5 330.5 218.5C338.328 218.5 337.672 214.5 345.5 214.5C353.328 214.5 352.672 218.5 360.5 218.5C368.328 218.5 367.672 214.5 375.5 214.5C383.328 214.5 382.672 218.5 390.5 218.5C398.328 218.5 397.672 214.5 405.5 214.5C413.328 214.5 412.672 218.5 420.5 218.5C428.328 218.5 427.672 214.5 435.5 214.5" stroke="currentColor" stroke-linecap="round"/>
  <path class="waveLine" d="M0.5 225.5C8.1843 225.5 7.67201 221.5 15.5 221.5C23.328 221.5 22.672 225.5 30.5 225.5C38.328 225.5 37.672 221.5 45.5 221.5C53.328 221.5 52.672 225.5 60.5 225.5C68.328 225.5 67.672 221.5 75.5 221.5C83.328 221.5 82.672 225.5 90.5 225.5C98.328 225.5 97.672 221.5 105.5 221.5C113.328 221.5 112.672 225.5 120.5 225.5C128.328 225.5 127.672 221.5 135.5 221.5C143.328 221.5 142.672 225.5 150.5 225.5C158.328 225.5 157.672 221.5 165.5 221.5C173.328 221.5 172.672 225.5 180.5 225.5C188.328 225.5 187.672 221.5 195.5 221.5C203.328 221.5 202.672 225.5 210.5 225.5M210.5 225.5C218.328 225.5 217.672 221.5 225.5 221.5M210.5 225.5C218.184 225.5 217.672 221.5 225.5 221.5M225.5 221.5C233.328 221.5 232.672 225.5 240.5 225.5C248.328 225.5 247.672 221.5 255.5 221.5C263.328 221.5 262.672 225.5 270.5 225.5C278.328 225.5 277.672 221.5 285.5 221.5C293.328 221.5 292.672 225.5 300.5 225.5C308.328 225.5 307.672 221.5 315.5 221.5C323.328 221.5 322.672 225.5 330.5 225.5C338.328 225.5 337.672 221.5 345.5 221.5C353.328 221.5 352.672 225.5 360.5 225.5C368.328 225.5 367.672 221.5 375.5 221.5C383.328 221.5 382.672 225.5 390.5 225.5C398.328 225.5 397.672 221.5 405.5 221.5C413.328 221.5 412.672 225.5 420.5 225.5C428.328 225.5 427.672 221.5 435.5 221.5" stroke="currentColor" stroke-linecap="round"/>
  <path class="waveLine" d="M0.5 232.5C8.1843 232.5 7.67201 228.5 15.5 228.5C23.328 228.5 22.672 232.5 30.5 232.5C38.328 232.5 37.672 228.5 45.5 228.5C53.328 228.5 52.672 232.5 60.5 232.5C68.328 232.5 67.672 228.5 75.5 228.5C83.328 228.5 82.672 232.5 90.5 232.5C98.328 232.5 97.672 228.5 105.5 228.5C113.328 228.5 112.672 232.5 120.5 232.5C128.328 232.5 127.672 228.5 135.5 228.5C143.328 228.5 142.672 232.5 150.5 232.5C158.328 232.5 157.672 228.5 165.5 228.5C173.328 228.5 172.672 232.5 180.5 232.5C188.328 232.5 187.672 228.5 195.5 228.5C203.328 228.5 202.672 232.5 210.5 232.5M210.5 232.5C218.328 232.5 217.672 228.5 225.5 228.5M210.5 232.5C218.184 232.5 217.672 228.5 225.5 228.5M225.5 228.5C233.328 228.5 232.672 232.5 240.5 232.5C248.328 232.5 247.672 228.5 255.5 228.5C263.328 228.5 262.672 232.5 270.5 232.5C278.328 232.5 277.672 228.5 285.5 228.5C293.328 228.5 292.672 232.5 300.5 232.5C308.328 232.5 307.672 228.5 315.5 228.5C323.328 228.5 322.672 232.5 330.5 232.5C338.328 232.5 337.672 228.5 345.5 228.5C353.328 228.5 352.672 232.5 360.5 232.5C368.328 232.5 367.672 228.5 375.5 228.5C383.328 228.5 382.672 232.5 390.5 232.5C398.328 232.5 397.672 228.5 405.5 228.5C413.328 228.5 412.672 232.5 420.5 232.5C428.328 232.5 427.672 228.5 435.5 228.5" stroke="currentColor" stroke-linecap="round"/>
  <path class="waveLine" d="M0.5 239.5C8.1843 239.5 7.67201 235.5 15.5 235.5C23.328 235.5 22.672 239.5 30.5 239.5C38.328 239.5 37.672 235.5 45.5 235.5C53.328 235.5 52.672 239.5 60.5 239.5C68.328 239.5 67.672 235.5 75.5 235.5C83.328 235.5 82.672 239.5 90.5 239.5C98.328 239.5 97.672 235.5 105.5 235.5C113.328 235.5 112.672 239.5 120.5 239.5C128.328 239.5 127.672 235.5 135.5 235.5C143.328 235.5 142.672 239.5 150.5 239.5C158.328 239.5 157.672 235.5 165.5 235.5C173.328 235.5 172.672 239.5 180.5 239.5C188.328 239.5 187.672 235.5 195.5 235.5C203.328 235.5 202.672 239.5 210.5 239.5M210.5 239.5C218.328 239.5 217.672 235.5 225.5 235.5M210.5 239.5C218.184 239.5 217.672 235.5 225.5 235.5M225.5 235.5C233.328 235.5 232.672 239.5 240.5 239.5C248.328 239.5 247.672 235.5 255.5 235.5C263.328 235.5 262.672 239.5 270.5 239.5C278.328 239.5 277.672 235.5 285.5 235.5C293.328 235.5 292.672 239.5 300.5 239.5C308.328 239.5 307.672 235.5 315.5 235.5C323.328 235.5 322.672 239.5 330.5 239.5C338.328 239.5 337.672 235.5 345.5 235.5C353.328 235.5 352.672 239.5 360.5 239.5C368.328 239.5 367.672 235.5 375.5 235.5C383.328 235.5 382.672 239.5 390.5 239.5C398.328 239.5 397.672 235.5 405.5 235.5C413.328 235.5 412.672 239.5 420.5 239.5C428.328 239.5 427.672 235.5 435.5 235.5" stroke="currentColor" stroke-linecap="round"/>
  <path class="waveLine" d="M0.5 246.5C8.1843 246.5 7.67201 242.5 15.5 242.5C23.328 242.5 22.672 246.5 30.5 246.5C38.328 246.5 37.672 242.5 45.5 242.5C53.328 242.5 52.672 246.5 60.5 246.5C68.328 246.5 67.672 242.5 75.5 242.5C83.328 242.5 82.672 246.5 90.5 246.5C98.328 246.5 97.672 242.5 105.5 242.5C113.328 242.5 112.672 246.5 120.5 246.5C128.328 246.5 127.672 242.5 135.5 242.5C143.328 242.5 142.672 246.5 150.5 246.5C158.328 246.5 157.672 242.5 165.5 242.5C173.328 242.5 172.672 246.5 180.5 246.5C188.328 246.5 187.672 242.5 195.5 242.5C203.328 242.5 202.672 246.5 210.5 246.5M210.5 246.5C218.328 246.5 217.672 242.5 225.5 242.5M210.5 246.5C218.184 246.5 217.672 242.5 225.5 242.5M225.5 242.5C233.328 242.5 232.672 246.5 240.5 246.5C248.328 246.5 247.672 242.5 255.5 242.5C263.328 242.5 262.672 246.5 270.5 246.5C278.328 246.5 277.672 242.5 285.5 242.5C293.328 242.5 292.672 246.5 300.5 246.5C308.328 246.5 307.672 242.5 315.5 242.5C323.328 242.5 322.672 246.5 330.5 246.5C338.328 246.5 337.672 242.5 345.5 242.5C353.328 242.5 352.672 246.5 360.5 246.5C368.328 246.5 367.672 242.5 375.5 242.5C383.328 242.5 382.672 246.5 390.5 246.5C398.328 246.5 397.672 242.5 405.5 242.5C413.328 242.5 412.672 246.5 420.5 246.5C428.328 246.5 427.672 242.5 435.5 242.5" stroke="currentColor" stroke-linecap="round"/>
  <path class="waveLine" d="M0.5 253.5C8.1843 253.5 7.67201 249.5 15.5 249.5C23.328 249.5 22.672 253.5 30.5 253.5C38.328 253.5 37.672 249.5 45.5 249.5C53.328 249.5 52.672 253.5 60.5 253.5C68.328 253.5 67.672 249.5 75.5 249.5C83.328 249.5 82.672 253.5 90.5 253.5C98.328 253.5 97.672 249.5 105.5 249.5C113.328 249.5 112.672 253.5 120.5 253.5C128.328 253.5 127.672 249.5 135.5 249.5C143.328 249.5 142.672 253.5 150.5 253.5C158.328 253.5 157.672 249.5 165.5 249.5C173.328 249.5 172.672 253.5 180.5 253.5C188.328 253.5 187.672 249.5 195.5 249.5C203.328 249.5 202.672 253.5 210.5 253.5M210.5 253.5C218.328 253.5 217.672 249.5 225.5 249.5M210.5 253.5C218.184 253.5 217.672 249.5 225.5 249.5M225.5 249.5C233.328 249.5 232.672 253.5 240.5 253.5C248.328 253.5 247.672 249.5 255.5 249.5C263.328 249.5 262.672 253.5 270.5 253.5C278.328 253.5 277.672 249.5 285.5 249.5C293.328 249.5 292.672 253.5 300.5 253.5C308.328 253.5 307.672 249.5 315.5 249.5C323.328 249.5 322.672 253.5 330.5 253.5C338.328 253.5 337.672 249.5 345.5 249.5C353.328 249.5 352.672 253.5 360.5 253.5C368.328 253.5 367.672 249.5 375.5 249.5C383.328 249.5 382.672 253.5 390.5 253.5C398.328 253.5 397.672 249.5 405.5 249.5C413.328 249.5 412.672 253.5 420.5 253.5C428.328 253.5 427.672 249.5 435.5 249.5" stroke="currentColor" stroke-linecap="round"/>
  <path class="waveLine" d="M0.5 260.5C8.1843 260.5 7.67201 256.5 15.5 256.5C23.328 256.5 22.672 260.5 30.5 260.5C38.328 260.5 37.672 256.5 45.5 256.5C53.328 256.5 52.672 260.5 60.5 260.5C68.328 260.5 67.672 256.5 75.5 256.5C83.328 256.5 82.672 260.5 90.5 260.5C98.328 260.5 97.672 256.5 105.5 256.5C113.328 256.5 112.672 260.5 120.5 260.5C128.328 260.5 127.672 256.5 135.5 256.5C143.328 256.5 142.672 260.5 150.5 260.5C158.328 260.5 157.672 256.5 165.5 256.5C173.328 256.5 172.672 260.5 180.5 260.5C188.328 260.5 187.672 256.5 195.5 256.5C203.328 256.5 202.672 260.5 210.5 260.5M210.5 260.5C218.328 260.5 217.672 256.5 225.5 256.5M210.5 260.5C218.184 260.5 217.672 256.5 225.5 256.5M225.5 256.5C233.328 256.5 232.672 260.5 240.5 260.5C248.328 260.5 247.672 256.5 255.5 256.5C263.328 256.5 262.672 260.5 270.5 260.5C278.328 260.5 277.672 256.5 285.5 256.5C293.328 256.5 292.672 260.5 300.5 260.5C308.328 260.5 307.672 256.5 315.5 256.5C323.328 256.5 322.672 260.5 330.5 260.5C338.328 260.5 337.672 256.5 345.5 256.5C353.328 256.5 352.672 260.5 360.5 260.5C368.328 260.5 367.672 256.5 375.5 256.5C383.328 256.5 382.672 260.5 390.5 260.5C398.328 260.5 397.672 256.5 405.5 256.5C413.328 256.5 412.672 260.5 420.5 260.5C428.328 260.5 427.672 256.5 435.5 256.5" stroke="currentColor" stroke-linecap="round"/>
  <path class="waveLine" d="M0.5 267.5C8.1843 267.5 7.67201 263.5 15.5 263.5C23.328 263.5 22.672 267.5 30.5 267.5C38.328 267.5 37.672 263.5 45.5 263.5C53.328 263.5 52.672 267.5 60.5 267.5C68.328 267.5 67.672 263.5 75.5 263.5C83.328 263.5 82.672 267.5 90.5 267.5C98.328 267.5 97.672 263.5 105.5 263.5C113.328 263.5 112.672 267.5 120.5 267.5C128.328 267.5 127.672 263.5 135.5 263.5C143.328 263.5 142.672 267.5 150.5 267.5C158.328 267.5 157.672 263.5 165.5 263.5C173.328 263.5 172.672 267.5 180.5 267.5C188.328 267.5 187.672 263.5 195.5 263.5C203.328 263.5 202.672 267.5 210.5 267.5M210.5 267.5C218.328 267.5 217.672 263.5 225.5 263.5M210.5 267.5C218.184 267.5 217.672 263.5 225.5 263.5M225.5 263.5C233.328 263.5 232.672 267.5 240.5 267.5C248.328 267.5 247.672 263.5 255.5 263.5C263.328 263.5 262.672 267.5 270.5 267.5C278.328 267.5 277.672 263.5 285.5 263.5C293.328 263.5 292.672 267.5 300.5 267.5C308.328 267.5 307.672 263.5 315.5 263.5C323.328 263.5 322.672 267.5 330.5 267.5C338.328 267.5 337.672 263.5 345.5 263.5C353.328 263.5 352.672 267.5 360.5 267.5C368.328 267.5 367.672 263.5 375.5 263.5C383.328 263.5 382.672 267.5 390.5 267.5C398.328 267.5 397.672 263.5 405.5 263.5C413.328 263.5 412.672 267.5 420.5 267.5C428.328 267.5 427.672 263.5 435.5 263.5" stroke="currentColor" stroke-linecap="round"/>
  <path class="waveLine" d="M0.5 274.5C8.1843 274.5 7.67201 270.5 15.5 270.5C23.328 270.5 22.672 274.5 30.5 274.5C38.328 274.5 37.672 270.5 45.5 270.5C53.328 270.5 52.672 274.5 60.5 274.5C68.328 274.5 67.672 270.5 75.5 270.5C83.328 270.5 82.672 274.5 90.5 274.5C98.328 274.5 97.672 270.5 105.5 270.5C113.328 270.5 112.672 274.5 120.5 274.5C128.328 274.5 127.672 270.5 135.5 270.5C143.328 270.5 142.672 274.5 150.5 274.5C158.328 274.5 157.672 270.5 165.5 270.5C173.328 270.5 172.672 274.5 180.5 274.5C188.328 274.5 187.672 270.5 195.5 270.5C203.328 270.5 202.672 274.5 210.5 274.5M210.5 274.5C218.328 274.5 217.672 270.5 225.5 270.5M210.5 274.5C218.184 274.5 217.672 270.5 225.5 270.5M225.5 270.5C233.328 270.5 232.672 274.5 240.5 274.5C248.328 274.5 247.672 270.5 255.5 270.5C263.328 270.5 262.672 274.5 270.5 274.5C278.328 274.5 277.672 270.5 285.5 270.5C293.328 270.5 292.672 274.5 300.5 274.5C308.328 274.5 307.672 270.5 315.5 270.5C323.328 270.5 322.672 274.5 330.5 274.5C338.328 274.5 337.672 270.5 345.5 270.5C353.328 270.5 352.672 274.5 360.5 274.5C368.328 274.5 367.672 270.5 375.5 270.5C383.328 270.5 382.672 274.5 390.5 274.5C398.328 274.5 397.672 270.5 405.5 270.5C413.328 270.5 412.672 274.5 420.5 274.5C428.328 274.5 427.672 270.5 435.5 270.5" stroke="currentColor" stroke-linecap="round"/>
  <path class="waveLine" d="M0.5 281.5C8.1843 281.5 7.67201 277.5 15.5 277.5C23.328 277.5 22.672 281.5 30.5 281.5C38.328 281.5 37.672 277.5 45.5 277.5C53.328 277.5 52.672 281.5 60.5 281.5C68.328 281.5 67.672 277.5 75.5 277.5C83.328 277.5 82.672 281.5 90.5 281.5C98.328 281.5 97.672 277.5 105.5 277.5C113.328 277.5 112.672 281.5 120.5 281.5C128.328 281.5 127.672 277.5 135.5 277.5C143.328 277.5 142.672 281.5 150.5 281.5C158.328 281.5 157.672 277.5 165.5 277.5C173.328 277.5 172.672 281.5 180.5 281.5C188.328 281.5 187.672 277.5 195.5 277.5C203.328 277.5 202.672 281.5 210.5 281.5M210.5 281.5C218.328 281.5 217.672 277.5 225.5 277.5M210.5 281.5C218.184 281.5 217.672 277.5 225.5 277.5M225.5 277.5C233.328 277.5 232.672 281.5 240.5 281.5C248.328 281.5 247.672 277.5 255.5 277.5C263.328 277.5 262.672 281.5 270.5 281.5C278.328 281.5 277.672 277.5 285.5 277.5C293.328 277.5 292.672 281.5 300.5 281.5C308.328 281.5 307.672 277.5 315.5 277.5C323.328 277.5 322.672 281.5 330.5 281.5C338.328 281.5 337.672 277.5 345.5 277.5C353.328 277.5 352.672 281.5 360.5 281.5C368.328 281.5 367.672 277.5 375.5 277.5C383.328 277.5 382.672 281.5 390.5 281.5C398.328 281.5 397.672 277.5 405.5 277.5C413.328 277.5 412.672 281.5 420.5 281.5C428.328 281.5 427.672 277.5 435.5 277.5" stroke="currentColor" stroke-linecap="round"/>
</svg>
